<svg xmlns="http://www.w3.org/2000/svg" xml:space="preserve" width="250" height="250"><path fill="#fff" d="M189.244 70.899h-13.525V58.726a6.762 6.762 0 0 0-5.734-6.684L82.07 38.517a6.76 6.76 0 0 0-7.79 6.684v25.698H60.757a6.763 6.763 0 0 0-6.763 6.763v32.46a6.763 6.763 0 0 0 6.763 6.764h4.013l8.701 88.575a6.763 6.763 0 0 0 6.73 6.1h89.6a6.762 6.762 0 0 0 6.73-6.1l8.702-88.575h4.013a6.763 6.763 0 0 0 6.763-6.763V77.662a6.764 6.764 0 0 0-6.764-6.763zM87.806 53.084l74.389 11.444v6.37h-74.39V53.085zm75.863 144.952H86.33l-7.971-81.151h93.283l-7.973 81.15zm18.812-94.676H67.517V84.425h114.964v18.935z"/><path fill="#fff" d="M125 133.792c-13.052 0-23.67 10.618-23.67 23.669 0 13.05 10.619 23.669 23.67 23.669 13.05 0 23.668-10.618 23.668-23.67 0-13.05-10.618-23.668-23.669-23.668zm0 33.812c-5.594 0-10.145-4.55-10.145-10.144 0-5.593 4.551-10.144 10.144-10.144 5.594 0 10.145 4.55 10.145 10.144-.002 5.594-4.552 10.144-10.145 10.144z"/></svg>